<svg xmlns="http://www.w3.org/2000/svg" xmlns:xlink="http://www.w3.org/1999/xlink" viewBox="0 0 888 789.2"><defs><style>.cls-1,.cls-2,.cls-3,.cls-4,.cls-6{stroke:#000;stroke-miterlimit:10;}.cls-1{fill:url(#Unbenannter_Verlauf_34);}.cls-2,.cls-4{fill:none;}.cls-3{fill:#fff;}.cls-4{opacity:0.19;}.cls-5{opacity:0.2;}.cls-6{fill:#85c179;}</style><radialGradient id="Unbenannter_Verlauf_34" cx="483.99" cy="552.7" r="160.03" gradientTransform="translate(0 -323.38) scale(1 1.59)" gradientUnits="userSpaceOnUse"><stop offset="0" stop-color="#fff"/><stop offset="0.59" stop-color="#fdfdfd"/><stop offset="0.8" stop-color="#f6f6f6"/><stop offset="0.95" stop-color="#ebebeb"/><stop offset="1" stop-color="#e5e5e5"/></radialGradient></defs><title>Flow</title><g id="Kopf"><path class="cls-1" d="M598.27,701s-3.27.34-1.94-5.32,3.33-15,3.33-21.33a61.71,61.71,0,0,1,4-22c3-7.67,16.67-46.67,18-63.33s3-57.33,4.33-65.67,5.67-20.67,4.33-39-2.33-18-1.33-23.67,2.33-45.33-13-69.33-12.64-20.67-20-31.67-50.35-64-120.35-58.33S364,351,351.33,375.33,336.67,418.67,339.67,441s-.45,31.33-1.23,38-1.89,22,0,32,5.89,19.33,5.23,26.33-1.33,17,.67,24.33,6,24,6,30S355.56,629,360.44,643s9.22,27,10.56,34.67,6,6.67,5.67,11.67-2,14-1.33,16S377,712,377,712s68.12,80.35,86,86.51,58.55,12.38,74.63-7.9S611.55,731,598.27,701Z" transform="translate(-67.87 -300.41)"/><path class="cls-2" d="M376.67,689.33s63.21,47,102.58,47.17c53.76.28,74.15-11.77,118-44.64" transform="translate(-67.87 -300.41)"/></g><g id="Hemd"><path class="cls-3" d="M68.67,1065.33s6-54,10.67-72.67S96,936.15,98,926.08s6-48.74,33.33-68.74S214,807,372.67,746.67c8.72-3.32,123.59,55,123.59,55l125.38-55.09s131.69,45.16,157,52,48,20.16,55.33,22.16,32.67,28,44.67,58,71.33,161.33,76.67,184S481.19,1084,481.19,1084L68.38,1089.1Z" transform="translate(-67.87 -300.41)"/><path class="cls-3" d="M519.45,782.14S483.67,782,467.33,777,436,814,436,814s21.45,6.33,41.73,6.67S519.45,782.14,519.45,782.14Z" transform="translate(-67.87 -300.41)"/><path class="cls-3" d="M530,779.67s-44.57,10.23-48.91,12.9S470,804.33,470,823c0,11,2.67,50.33,2.33,57.67s2.33,184.67,2.33,190.33,49.33,0,49.33,0l1.67-255.33s18.67-5,26.33-8.67S559.33,772.67,530,779.67Z" transform="translate(-67.87 -300.41)"/><line class="cls-4" x1="402.13" y1="522.59" x2="457.79" y2="515.26"/><line class="cls-4" x1="402.29" y1="517.58" x2="477.13" y2="504.59"/><line class="cls-4" x1="402.13" y1="513.26" x2="467.13" y2="499.92"/><line class="cls-4" x1="404.33" y1="505.95" x2="467.13" y2="493.59"/><line class="cls-4" x1="407.76" y1="498.1" x2="461.46" y2="487.92"/><line class="cls-2" x1="407.76" y1="498.1" x2="407.76" y2="498.1"/><circle class="cls-3" cx="428.39" cy="501.21" r="8.89"/><path class="cls-2" d="M209.38,1070s3.54-35.21,3.27-55.62S211,978.67,211,978.67" transform="translate(-67.87 -300.41)"/><path class="cls-2" d="M785.33,978.67s-.35,45.39,8.67,88" transform="translate(-67.87 -300.41)"/></g><g id="Band"><path class="cls-5" d="M559.4,815.67s-40.25,58.75-46,66.75-15,22-14,33.75,7.26,20.75,7.76,26.25,14,86.25,14,86.25,6.59,3.36,10,21.94,36.5,9.56,36.5,9.56-14.34-46.59-29.36-78.55c-9.87-21-24.14-52.45-24.14-52.45s3,1,17.25-19.75,51.75-76,51.75-76Z" transform="translate(-67.87 -300.41)"/><path class="cls-5" d="M435.5,828.31l33.75,44.75s22.1,24.75,24.43,44.75,6.46,19.26,6.46,19.26,14.36,55,15.61,66.74S522,1062,522,1062H491l-4.75-66.44s-2.61-13.67.57-27.59,6.18-14.91,4.43-24.66-6.5-18.25-11-20.75-13-6.25-19.25-14.75-44.5-57.25-44.5-57.25Z" transform="translate(-67.87 -300.41)"/><path class="cls-6" d="M555.75,815s-40.25,58.75-46,66.75-15,22-14,33.75,7.26,20.75,7.76,26.25,14,86.25,14,86.25,6.59,3.36,10,21.94,36.5,9.56,36.5,9.56-14.34-46.59-29.36-78.55c-9.87-21-24.14-52.45-24.14-52.45s3,1,17.25-19.75,51.75-76,51.75-76Z" transform="translate(-67.87 -300.41)"/><path class="cls-6" d="M437.5,828l33.75,44.75s22.1,24.75,24.43,44.75,6.46,19.26,6.46,19.26,14.36,55,15.61,66.74,6.25,58.19,6.25,58.19H493l-4.75-66.44s-2.61-13.67.57-27.59S495,952.75,493.25,943s-6.5-18.25-11-20.75S469.25,916,463,907.5s-44.5-57.25-44.5-57.25Z" transform="translate(-67.87 -300.41)"/></g><g id="Kragen"><path class="cls-5" d="M377.37,714.83,362,769.24s-3.58,16.43,0,25.16S418,880.33,418,880.33l50.57-88.93S476,781.25,478,781.25C481.23,781.25,379.79,706.21,377.37,714.83Z" transform="translate(-67.87 -300.41)"/><path class="cls-5" d="M599.6,703.47l24,51.59s6.2,15.74,4.11,25S586,872.94,586,872.94s-53.59-65.42-60.23-74.34c-6-8.06-11.13-15.27-14-13.75S595.8,695.3,599.6,703.47Z" transform="translate(-67.87 -300.41)"/><path class="cls-3" d="M377,712l-15,53s-3.5,16,0,24.5,55.73,80.37,55.73,80.37l53.11-83.8S475,778.5,478,779.5,379.38,703.61,377,712Z" transform="translate(-67.87 -300.41)"/><path class="cls-3" d="M600.37,701.19l23.4,49.87s6,15.22,4,24.18-42,88.34-42,88.34l-66-74.07s-5.34-6.8-8.13-5.32S596.66,693.29,600.37,701.19Z" transform="translate(-67.87 -300.41)"/></g><g id="Knoten"><path class="cls-3" d="M503.51,918.38s-5.38-4.5-9.63-3.25-6.37,3.5-6.75,4.38-1.33,2.58-1.87,3.63-1.37.13-2.37,1-2.37,3-2.25,4.25-2.12,2.63-1.12,5,1.13-.25,1,2.38-1.87,3.38.38,5.13,2.5,1.13,2.5,2.5-1.75,3.13.63,3.5,4.5,1.5,6.25.63,1-3.62,2.38-4.25,1.73-.37,3.05-1.62-.68-1.75,2.32-2.37,3.51-2.75,5.51-1.5,2.87,1.88,4.74,2.25,1.88,2.13,4,2.5,2.47,2.08,3.88,1.75,2.93-2.29,3.1-7.1-.35-7.15-1.6-8.28.27-2.64-1.12-3.75-1-3.25-3-3.87-1.5-2.62-3.87-3.12S505.45,919.74,503.51,918.38Z" transform="translate(-67.87 -300.41)"/><path d="M481.12,935a6.54,6.54,0,0,1,6-3.45c.77,0,.77-1.17,0-1.19a7.73,7.73,0,0,0-7,4c-.37.67.66,1.27,1,.6Z" transform="translate(-67.87 -300.41)"/><path d="M480.43,929.88a9.5,9.5,0,0,1,5.29-.05.6.6,0,0,0,.32-1.15,10.72,10.72,0,0,0-5.92.05.6.6,0,0,0,.32,1.15Z" transform="translate(-67.87 -300.41)"/><path d="M488.81,932.3a9.47,9.47,0,0,1-1.66-4.77c0-2.07,1.36-3,2.8-4.26,2.73-2.38,6.48-4.37,9.1-.55.43.63,1.46,0,1-.6-2.44-3.54-6.45-3.4-9.58-.9-1.61,1.29-3.95,2.82-4.5,4.94-.62,2.38.63,4.77,1.78,6.75a.6.6,0,0,0,1-.6Z" transform="translate(-67.87 -300.41)"/><path d="M508.14,940.17a12.19,12.19,0,0,0-.8-6.87c-.8-2.12-2.28-3.13-4-4.48-.61-.47-1.2.57-.6,1,1.69,1.31,3,2.39,3.73,4.47a10.36,10.36,0,0,1,.55,5.53c-.15.75,1,1.07,1.15.32Z" transform="translate(-67.87 -300.41)"/><path d="M507.87,937.53c-2.93-1.54-2.11-5.93-4.14-8.34a7.58,7.58,0,0,0-2.57-2c-1.46-.68-5.88-.78-5.44-3.44.13-.75-1-1.07-1.15-.32-.64,3.82,3.59,3.72,6,4.85,4.62,2.15,2.51,8.05,6.66,10.24.68.36,1.28-.67.6-1Z" transform="translate(-67.87 -300.41)"/><path d="M483.67,942a10,10,0,0,1,.27-5c.74-2.21,2.31-2.62,4.43-2.68a.6.6,0,0,0,0-1.19c-2.1.06-4.07.37-5.12,2.4a10.74,10.74,0,0,0-.73,6.83c.14.75,1.29.43,1.15-.32Z" transform="translate(-67.87 -300.41)"/><path d="M495.37,940.35a9.62,9.62,0,0,1-5.63-.83c-2-1-3.55-4-1-5.42a.6.6,0,0,0-.6-1c-2.21,1.27-2.37,4-.87,5.93,1.84,2.36,5.35,2.86,8.13,2.54.75-.09.76-1.28,0-1.19Z" transform="translate(-67.87 -300.41)"/><path d="M491.88,942.36c-4.06.42-6.51-3.38-5.81-7.11.14-.75-1-1.07-1.15-.32-.84,4.42,2.06,9.13,7,8.62.75-.08.76-1.27,0-1.19Z" transform="translate(-67.87 -300.41)"/><path d="M491.4,943.51c-1.67.6-6.08,2.34-7.27.31a.6.6,0,0,0-1,.6c1.64,2.8,6.3,1.07,8.62.23.72-.26.41-1.41-.32-1.15Z" transform="translate(-67.87 -300.41)"/><path d="M515.09,943.06c1.85-5.53,2.66-11.84-1.88-16.29-.55-.54-1.39.3-.84.84,4.24,4.16,3.28,10,1.58,15.13-.24.73.91,1,1.15.32Z" transform="translate(-67.87 -300.41)"/><path d="M510.7,941.32c1.8-2.25,2.53-6.8-.94-7.93-.73-.24-1,.91-.32,1.15,2.52.83,1.63,4.43.41,5.94-.47.59.36,1.44.84.84Z" transform="translate(-67.87 -300.41)"/><path d="M508.31,934c3.25-2.18.12-9.51-3-10.42a.6.6,0,0,0-.32,1.15c2.08.6,5,6.75,2.74,8.25-.63.42,0,1.46.6,1Z" transform="translate(-67.87 -300.41)"/><path d="M510.18,921.55a10.78,10.78,0,0,0-4.35-.18,1.93,1.93,0,0,0-1.19.7c-.33.45-.23,1.09-.57,1.51-.47.59.37,1.44.84.84s.45-1.82,1.52-1.94a11.23,11.23,0,0,1,3.42.22c.75.15,1.07-1,.32-1.15Z" transform="translate(-67.87 -300.41)"/><path d="M510.89,922c.29-1.3.36-2.62-.82-3.48a5.87,5.87,0,0,0-4.65-.46c-2.87.82-3.74,5.17-2.69,7.61.3.7,1.33.1,1-.6-.63-1.47-.14-4.35,1.09-5.39a4.31,4.31,0,0,1,3-.62c1.61.09,2.27,1,1.91,2.63-.17.75,1,1.06,1.15.32Z" transform="translate(-67.87 -300.41)"/><path d="M514.64,923a4.82,4.82,0,0,0-6.42,4.52.6.6,0,0,0,1.19,0,3.64,3.64,0,0,1,4.92-3.37c.73.25,1-.9.32-1.15Z" transform="translate(-67.87 -300.41)"/><path d="M519.16,940.4a9,9,0,0,0-2.77-7.91c-.56-.52-1.4.32-.84.84a7.74,7.74,0,0,1,2.46,6.76c-.1.75,1,1.07,1.15.32Z" transform="translate(-67.87 -300.41)"/><path d="M518.41,929.09a5.4,5.4,0,0,0-4.71-1.33c-.75.14-.43,1.29.32,1.15a4.12,4.12,0,0,1,3.55,1c.57.51,1.41-.33.84-.84Z" transform="translate(-67.87 -300.41)"/><path d="M504.95,937.71a5,5,0,0,0-4.85-4.49,7.91,7.91,0,0,0-3.93,1.53c-2.78,1.67-5,2.75-8.37,1.63-.73-.24-1,.91-.32,1.15a8.88,8.88,0,0,0,6.53-.12c2.79-1.18,8.74-6.49,9.79.62.11.76,1.26.43,1.15-.32Z" transform="translate(-67.87 -300.41)"/><path d="M487.57,935c1.95.94,3.49,1.26,5.49.28s3.31-2.2,5.57-2.27c2.47-.08,4.88,1,7.11,1.9.7.29,1.31-.73.6-1-2.44-1-5-2.13-7.71-2.07-3.77.09-6.53,4-10.46,2.15-.69-.33-1.29.7-.6,1Z" transform="translate(-67.87 -300.41)"/><path d="M500,937.5a21.21,21.21,0,0,1-7.55-.31c-.75-.17-1.07,1-.32,1.15a22.89,22.89,0,0,0,8.19.31c.76-.1.43-1.25-.32-1.15Z" transform="translate(-67.87 -300.41)"/><path d="M488,932.13c1.11,1.26,1.95,1.72,3.48,1,2-.95,3.18-2.39,5.62-2.49a14.57,14.57,0,0,1,7.32,2c.68.36,1.28-.67.6-1a15.08,15.08,0,0,0-8.42-2.16,9.78,9.78,0,0,0-2.74.63c-1.38.55-3.5,2.89-5,1.18-.51-.58-1.35.27-.84.84Z" transform="translate(-67.87 -300.41)"/><path d="M486.6,922.58a3.49,3.49,0,0,1,2.64-.51,17.27,17.27,0,0,0,2.14.55c.76.07.76-1.12,0-1.19-1-.09-1.87-.64-2.9-.63a4.77,4.77,0,0,0-2.48.75c-.65.4-.05,1.43.6,1Z" transform="translate(-67.87 -300.41)"/><path d="M490.25,917.85a6.61,6.61,0,0,1,4.68,2.59c.47.6,1.31-.25.84-.84a7.76,7.76,0,0,0-5.52-2.94c-.76-.07-.76,1.12,0,1.19Z" transform="translate(-67.87 -300.41)"/><path d="M496.95,916.33c2.11,1,1.93,3.56,1.75,5.55-.07.76,1.12.76,1.19,0,.22-2.43.18-5.35-2.34-6.58-.69-.33-1.29.69-.6,1Z" transform="translate(-67.87 -300.41)"/><path d="M501.58,917.84c-.17,4.16-1.29,8.47,1.12,12.21.41.64,1.45,0,1-.6-2.28-3.53-1.12-7.7-1-11.61,0-.77-1.16-.76-1.19,0Z" transform="translate(-67.87 -300.41)"/><path d="M506.08,931.23a7,7,0,0,0,1-6.65c-.26-.72-1.41-.41-1.15.32a5.92,5.92,0,0,1-.91,5.74c-.47.61.57,1.2,1,.6Z" transform="translate(-67.87 -300.41)"/><path d="M497.09,928.39c-1.65.31-3.84.73-5.5.26s-3.76-4.45-1.51-5.58c.68-.35.08-1.37-.6-1-2.47,1.25-1.59,4.72-.15,6.49,1.83,2.26,5.62,1.48,8.09,1,.75-.14.43-1.29-.32-1.15Z" transform="translate(-67.87 -300.41)"/><path d="M496.63,926.69a3.14,3.14,0,0,1-2.95-3.25c0-1.79,1.67-1.9,3.07-1.84.77,0,.76-1.16,0-1.19-2.13-.1-4.23.53-4.26,3a4.34,4.34,0,0,0,4.14,4.44c.77,0,.76-1.15,0-1.19Z" transform="translate(-67.87 -300.41)"/><path d="M490.88,922a4.82,4.82,0,0,0,.63,5.82c1.68,1.86,4.23,2.3,6.62,2.17.76,0,.77-1.23,0-1.19a7.53,7.53,0,0,1-5.08-1.18,3.74,3.74,0,0,1-1.15-5,.6.6,0,0,0-1-.6Z" transform="translate(-67.87 -300.41)"/><path d="M498.48,922.26c1.7,1.34,4.18,2.7,5.31,4.59,1.24,2.08,1,4.81,1.61,7.1a.6.6,0,0,0,1.15-.32c-.61-2.42-.44-5.18-1.73-7.39-1.19-2-3.7-3.41-5.5-4.83-.6-.47-1.44.37-.84.84Z" transform="translate(-67.87 -300.41)"/><path d="M510.39,941.42a14.09,14.09,0,0,0,1.32-6.24c.06-2.16-.81-2.54-2.72-3.28-.51-.2-.91.46-.67.87a6.64,6.64,0,0,0,1.71,2c.59.47,1.44-.36.84-.84a5.9,5.9,0,0,1-1.53-1.8l-.67.87c.89.34,1.64.52,1.86,1.57a7.81,7.81,0,0,1-.09,2,10.68,10.68,0,0,1-1.08,4.23c-.35.68.68,1.28,1,.6Z" transform="translate(-67.87 -300.41)"/><path d="M509.44,930.54c4.44-.66,6.48,8.78,4.3,11.69-.46.61.57,1.21,1,.6,1.75-2.34.88-6.73,0-9.22s-2.64-4.66-5.61-4.21c-.76.11-.43,1.26.32,1.15Z" transform="translate(-67.87 -300.41)"/><path d="M514.93,929a9.52,9.52,0,0,0-5-4.48c-.71-.28-1,.87-.32,1.15a8.28,8.28,0,0,1,4.29,3.93c.35.68,1.38.08,1-.6Z" transform="translate(-67.87 -300.41)"/><path d="M516.54,925.17a5.79,5.79,0,0,0-4.28.42c-.68.35-.08,1.37.6,1a4.53,4.53,0,0,1,3.36-.3.6.6,0,0,0,.32-1.15Z" transform="translate(-67.87 -300.41)"/><path d="M495.77,924.41c.22-.44,1.07-.2,1.43-.21a5.58,5.58,0,0,0,1-.12,8.48,8.48,0,0,0,2.13-.83c.68-.35.08-1.38-.6-1a6.28,6.28,0,0,1-3.29.76,1.64,1.64,0,0,0-1.67.84c-.34.68.69,1.29,1,.6Z" transform="translate(-67.87 -300.41)"/></g></svg>