<svg id="fotos" xmlns="http://www.w3.org/2000/svg" viewBox="0 0 123 123"><defs><style>.cls-1{fill:#fff;stroke:#51beca;stroke-miterlimit:10;stroke-width:3px;}</style></defs><title>fotobuttons</title><circle class="cls-1" cx="61.5" cy="61.5" r="60"/><path d="M456.37,211.13H445.29l-5.2-13h-33l-5.2,13h-1.72v-6.5h-7.8v6.5h-1.56a6.24,6.24,0,0,0-6.24,6.24v38.18a6.29,6.29,0,0,0,6.28,6.28h65.43a6.29,6.29,0,0,0,6.28-6.28V217.37A6.24,6.24,0,0,0,456.37,211.13ZM395,207.23h2.6v3.9H395Zm65,48.32a3.69,3.69,0,0,1-3.68,3.68H390.89a3.69,3.69,0,0,1-3.68-3.68V217.37a3.64,3.64,0,0,1,3.64-3.64h12.84l5.2-13h29.44l5.2,13h12.84a3.64,3.64,0,0,1,3.64,3.64v38.18Z" transform="translate(-362.11 -168.48)"/><path d="M423.61,209.83a23.4,23.4,0,1,0,23.4,23.4A23.43,23.43,0,0,0,423.61,209.83Zm0,44.2a20.8,20.8,0,1,1,20.8-20.8A20.82,20.82,0,0,1,423.61,254Z" transform="translate(-362.11 -168.48)"/><path d="M423.61,217.63a15.6,15.6,0,1,0,15.6,15.6A15.62,15.62,0,0,0,423.61,217.63Zm0,28.6a13,13,0,1,1,13-13A13,13,0,0,1,423.61,246.23Z" transform="translate(-362.11 -168.48)"/><path d="M452.21,216.33a5.2,5.2,0,1,0,5.2,5.2A5.21,5.21,0,0,0,452.21,216.33Zm0,7.8a2.6,2.6,0,1,1,2.6-2.6A2.6,2.6,0,0,1,452.21,224.13Z" transform="translate(-362.11 -168.48)"/></svg>