<svg xmlns="http://www.w3.org/2000/svg" viewBox="0 0 148.31 145.41"><title>LampeAfterglow 4</title><g id="Ebene_8" data-name="Ebene 8"><path d="M365.3,98.27a28.16,28.16,0,0,1,1.68,2.86c.3.57.63,1.17.92,1.77l.8,1.79a22.81,22.81,0,0,1,1.09,2.86c.2.67.23,1,0,.64-.67-1.49-1.91-4.33-3-6.55S364.71,97.71,365.3,98.27Z" transform="translate(-235.37 -57.18)"/><path d="M295.65,64.73l2.17-.34,1.68-.22c1-.15,1.77-.29,2.55-.38a33.45,33.45,0,0,1,6.56-.33l2.51.17,1.91.26a24,24,0,0,1,2.71.52c1.54.35,2.85.71,5.7,1.41a51.58,51.58,0,0,1,16.27,5.9,84.47,84.47,0,0,1,14.19,10.05c.45,1-1.6-1.06-7-5.07.58.49,1.4,1.19,2.4,2s2.11,1.83,3.27,2.92a72.87,72.87,0,0,1,6.61,7.17c.9,1.21,1.74,2.29,2.36,3.22s1.07,1.67,1.31,2.12c.48.89.09.6-1.69-1.56-2.11-2.66-2.78-3.53-3.22-4.16a14.73,14.73,0,0,0-2-2.53c-.57-.44-1.22-1-2-1.6s-1.69-1.33-2.73-2.19c-2.14-1.66-4.88-3.85-8.76-6.44a10.63,10.63,0,0,0-2.71-1.16,20.84,20.84,0,0,1-3.15-1.25,65.71,65.71,0,0,0-22.88-6.58,66.9,66.9,0,0,0-23.22,1.76,67,67,0,0,0-38.82,27.64l-3.31,5.12-1,1.5c-.33.57-.71,1.26-1.22,2.26a83.59,83.59,0,0,0-4.73,16.47c-.56,3.14-.86,6.29-1.08,9.1s-.21,5.3-.24,7.14c.61,2.41,1.14,7.65,2.64,13.13l.56,2.07.66,2c.41,1.38,1,2.68,1.47,4s1.1,2.46,1.65,3.57,1.13,2.1,1.68,3a14.76,14.76,0,0,0,1.67,3.43c.54.86,1.14,1.9,1.76,2.79s1.29,1.91,1.94,2.76c1,1.19,1.15,1.27,1.36,1.39s.42.32,1.6,1.6a68.44,68.44,0,0,0,16,13.35c1.34.82,2.58,1.36,3.77,2s2.4,1.08,3.78,1.61a72.59,72.59,0,0,0,18.26,5.07,58.13,58.13,0,0,0,18.49-.37c1.88-.34,3.41-.57,4.7-.87l1.8-.36,1.57-.37,1.46-.33,1.44-.4a33.5,33.5,0,0,0,3.26-1A87.6,87.6,0,0,0,340,190l2.68-1.78c.82-.57,1.7-1.24,2.55-1.85,1.7-1.29,3.37-2.64,5-4.07a73.37,73.37,0,0,0,14.74-18.24c.76-1.51,1.19-2.56,1.5-3.31a12.57,12.57,0,0,0,.47-1.64,21.9,21.9,0,0,1,.73-3,86.51,86.51,0,0,0,3.48-11.43,80.1,80.1,0,0,0,1.53-8.9,87.46,87.46,0,0,0-1-13.84,63.28,63.28,0,0,0-4.27-15.06c-.53-.78.09.84.75,2.61s1.22,3.73,1,3.49c.16,1.5-1.55-3.9-1.85-3.79l-.84-2.12-.84-1.88c-.5-1.21-1.08-2.26-1.56-3.29a64,64,0,0,0-3.27-5.78c.75-.28-.47-2.77,1.71-1.11,1.29,1.91,2.28,3.65,3.18,5.17s1.6,2.89,2.22,4.2l1,1.89.86,1.89c.61,1.26,1.11,2.61,1.73,4.1a76.65,76.65,0,0,1,2.21,9.66c.23,1.35.37,2.61.57,3.82s.29,2.39.45,3.59A80.6,80.6,0,0,1,371,154.66a67.43,67.43,0,0,1-11.09,21.52,62.81,62.81,0,0,1-6,6.33c-.46.44-.91.9-1.4,1.35l-1.5,1.34c-1,.93-2.1,1.78-3.2,2.69s-2.28,1.71-3.52,2.63-2.38,1.64-3.71,2.39a59.3,59.3,0,0,1-16.41,6.92c-2.31.65-3.07.82-3.63,1a12.59,12.59,0,0,1-2.66.71c-1.35.27-2.53.48-3.59.6s-2,.26-2.8.3a35.83,35.83,0,0,1-4,.11c-1.09,0-2-.05-3.11-.15s-2.27-.13-3.87-.29a79.4,79.4,0,0,1-15-2.14,30.94,30.94,0,0,1-6.1-2.34,60.56,60.56,0,0,1-11.07-5.24,64.2,64.2,0,0,1-11.65-9,60.22,60.22,0,0,1-8.39-10.16l-.38-.57-.2-.3-.16-.28-.62-1.06c-.39-.68-.76-1.29-1.06-1.88a28.74,28.74,0,0,1-1.21-2.68,58.89,58.89,0,0,1-9.19-28.27A71.18,71.18,0,0,1,243.77,100a44.33,44.33,0,0,1,4-6.14c.54-.75,1.1-1.4,1.69-2.1s1.19-1.46,2-2.31a58.59,58.59,0,0,1,11.75-11.73l2-1.45c.72-.54,1.39-.92,2.1-1.39,1.36-.92,2.9-1.75,4.39-2.61a72.18,72.18,0,0,1,9.27-4.11c4.23-1.46,5.2-1.76,6.14-2.2a11.35,11.35,0,0,1,1.86-.66c.46-.13,1-.28,1.74-.46s1.62-.31,2.73-.5a24.33,24.33,0,0,1,4.33-.48C301.81,63.74,296.85,64.25,295.65,64.73Z" transform="translate(-235.37 -57.18)"/><path d="M374.39,92a28.16,28.16,0,0,1,1.68,2.86c.3.57.63,1.17.92,1.77l.8,1.79a22.8,22.8,0,0,1,1.09,2.86c.2.67.23,1,0,.64-.67-1.49-1.91-4.33-3-6.55S373.8,91.46,374.39,92Z" transform="translate(-235.37 -57.18)"/><path d="M304.73,58.47l2.17-.34,1.68-.22c1-.15,1.77-.29,2.55-.38a33.45,33.45,0,0,1,6.56-.33l2.51.17,1.91.26a24,24,0,0,1,2.71.52c1.54.35,2.85.71,5.7,1.41a51.58,51.58,0,0,1,16.27,5.9A84.47,84.47,0,0,1,361,75.52c.45,1-1.6-1.06-7-5.07.58.49,1.4,1.19,2.4,2s2.11,1.83,3.27,2.92a72.86,72.86,0,0,1,6.61,7.17c.9,1.21,1.74,2.29,2.36,3.22s1.07,1.67,1.31,2.12c.48.89.09.6-1.69-1.56-2.11-2.66-2.78-3.53-3.22-4.16a14.73,14.73,0,0,0-2-2.53c-.57-.44-1.22-1-2-1.6s-1.69-1.33-2.73-2.19c-2.14-1.66-4.88-3.85-8.76-6.44a10.63,10.63,0,0,0-2.71-1.16A20.83,20.83,0,0,1,343.65,67a65.72,65.72,0,0,0-22.88-6.58,66.9,66.9,0,0,0-23.22,1.76,67,67,0,0,0-38.82,27.64l-3.31,5.12-1,1.5c-.33.57-.71,1.26-1.22,2.26a83.59,83.59,0,0,0-4.73,16.47c-.56,3.14-.86,6.29-1.08,9.1s-.21,5.3-.24,7.14c.61,2.41,1.14,7.65,2.64,13.13l.56,2.07.66,2c.41,1.38,1,2.68,1.47,4s1.1,2.46,1.65,3.57,1.13,2.1,1.68,3a14.76,14.76,0,0,0,1.67,3.43c.54.86,1.14,1.9,1.76,2.79s1.29,1.91,1.94,2.76c1,1.19,1.15,1.27,1.36,1.39s.42.32,1.6,1.6a68.44,68.44,0,0,0,16,13.35c1.34.82,2.58,1.36,3.77,2s2.4,1.08,3.78,1.61a72.59,72.59,0,0,0,18.26,5.07,58.13,58.13,0,0,0,18.49-.37c1.88-.34,3.41-.57,4.7-.87l1.8-.36,1.57-.37,1.46-.33,1.44-.4a33.51,33.51,0,0,0,3.26-1A87.6,87.6,0,0,0,349,183.76l2.68-1.78c.82-.57,1.7-1.24,2.56-1.85,1.7-1.29,3.37-2.64,5-4.07A73.37,73.37,0,0,0,374,157.82c.76-1.51,1.19-2.56,1.5-3.31a12.58,12.58,0,0,0,.47-1.64,21.9,21.9,0,0,1,.73-3,86.51,86.51,0,0,0,3.48-11.43,80.11,80.11,0,0,0,1.53-8.9,87.46,87.46,0,0,0-1-13.84,63.29,63.29,0,0,0-4.27-15.06c-.53-.78.09.84.75,2.61s1.22,3.73,1,3.49c.16,1.5-1.55-3.9-1.85-3.79l-.84-2.12-.84-1.88c-.5-1.21-1.08-2.26-1.56-3.29a64,64,0,0,0-3.27-5.78c.75-.28-.47-2.77,1.71-1.11,1.29,1.91,2.28,3.65,3.18,5.17s1.6,2.89,2.22,4.2l1,1.89.86,1.89c.61,1.26,1.11,2.61,1.73,4.1a76.64,76.64,0,0,1,2.21,9.66c.23,1.35.37,2.61.57,3.82s.29,2.39.45,3.59a80.6,80.6,0,0,1-3.54,25.35A67.43,67.43,0,0,1,369,169.93a62.81,62.81,0,0,1-6,6.33c-.46.44-.91.9-1.4,1.35l-1.5,1.34c-1,.93-2.1,1.78-3.2,2.69s-2.28,1.71-3.52,2.63-2.38,1.64-3.71,2.39a59.31,59.31,0,0,1-16.41,6.92c-2.31.65-3.07.82-3.63,1a12.59,12.59,0,0,1-2.66.71c-1.35.27-2.53.48-3.59.6s-2,.26-2.8.3a35.83,35.83,0,0,1-4,.11c-1.09,0-2-.05-3.11-.15s-2.27-.13-3.87-.29a79.4,79.4,0,0,1-15-2.14,30.94,30.94,0,0,1-6.1-2.34,60.56,60.56,0,0,1-11.07-5.24,64.2,64.2,0,0,1-11.65-9A60.22,60.22,0,0,1,257.46,167l-.38-.57-.2-.3-.16-.28-.62-1.06c-.39-.68-.76-1.29-1.06-1.88a28.74,28.74,0,0,1-1.21-2.68A58.89,58.89,0,0,1,244.63,132a71.18,71.18,0,0,1,8.23-38.23,44.33,44.33,0,0,1,4-6.14c.54-.75,1.1-1.4,1.69-2.1s1.19-1.46,2-2.31a58.59,58.59,0,0,1,11.75-11.73l2-1.45c.72-.54,1.39-.92,2.1-1.39,1.36-.92,2.9-1.75,4.39-2.61A72.18,72.18,0,0,1,290,61.91c4.23-1.46,5.2-1.76,6.14-2.2A11.35,11.35,0,0,1,298,59c.46-.13,1-.28,1.74-.46s1.62-.31,2.73-.5a24.33,24.33,0,0,1,4.33-.48C310.9,57.48,305.93,58,304.73,58.47Z" transform="translate(-235.37 -57.18)"/><path d="M347.42,108.45l.54.82c.19.32.37.72.58,1.11l1.19,2.44a10.89,10.89,0,0,1,.76,1.94c.14.45.17.65,0,.42C349.77,113.07,346.77,107.59,347.42,108.45Z" transform="translate(-235.37 -57.18)"/><path d="M300.08,85.56l1.47-.25,1.15-.11,1.74-.21c.53-.06,1.07-.15,1.76-.19s1.54,0,2.7,0l1.71.08,1.29.2c.75.12,1.32.22,1.84.32s1,.17,1.61.33,1.3.35,2.27.59a35.26,35.26,0,0,1,5.71,1.57c.93.31,1.81.77,2.71,1.16a23.41,23.41,0,0,1,2.64,1.3,45.12,45.12,0,0,1,5,3.16c.79.59,1.63,1.11,2.39,1.75l2.28,1.93c.2.29-.09.13-.86-.48q-.58-.46-1.51-1.26c-.61-.55-1.46-1.06-2.38-1.75a54.05,54.05,0,0,1,8.49,8.12c2.42,3.34,3.91,5.47,1.43,2.53-1.43-1.83-1.85-2.46-2.2-2.85a17.88,17.88,0,0,0-1.42-1.69c-.37-.32-.79-.7-1.28-1.16s-1.16-.9-1.88-1.49a64,64,0,0,0-6-4.44c-2.09-1.07-1.48-.57-4-1.78A44.62,44.62,0,0,0,311,86.46a46,46,0,0,0-16,1.24,45.52,45.52,0,0,0-26.71,19A25.14,25.14,0,0,0,267,108.9c-.34.56-.59.95-.82,1.3l-.69,1c-.21.4-.45.88-.78,1.58l-.93,2.27c-.31.84-.57,1.78-.88,2.75l-.47,1.48c-.15.51-.24,1-.37,1.56-.22,1.06-.51,2.13-.7,3.21a57,57,0,0,0-.68,6.26c0,1-.16,1.88-.13,2.7s0,1.57,0,2.2c.08.42.16,1,.23,1.58s.25,1.35.38,2.14l.42,2.55.7,2.76.36,1.43.49,1.4,1,2.74c.79,1.7,1.55,3.26,2.25,4.47a17,17,0,0,0,1.26,2.35c.36.58.74,1.33,1.18,1.91l1.38,1.86a4.41,4.41,0,0,0,.88,1c.14.09.24.26,1.08,1.12a46.82,46.82,0,0,0,11,9.14c.94.53,1.75,1,2.56,1.39s1.67.69,2.6,1.1c7.4,3.35,17.67,4.82,25.26,3.22,2.62-.32,4.16-.85,5.54-1.11l1-.22,1-.31,2.23-.75a35.17,35.17,0,0,0,3.53-1.71c.6-.32,1.22-.6,1.83-.95l1.82-1.16,1.86-1.17c.54-.37,1.14-.87,1.72-1.3l1.75-1.34a20.57,20.57,0,0,0,1.65-1.46,49.37,49.37,0,0,0,10.06-12.57A22.28,22.28,0,0,0,348.9,150l.57-2a50.58,50.58,0,0,0,3.24-14,49.14,49.14,0,0,0-3.55-19.81c-.61-1.11,1.56,4.5,1.27,4.16.2,1-1.11-2.66-1.22-2.62-.19-.52-.36-1-.55-1.47l-.61-1.27L347,110.68a19.15,19.15,0,0,0-1.11-2l-1.19-2c.4-.1-.45-1.79.87-.54l2.16,3.5,1.47,2.89.67,1.29.54,1.31,1.16,2.79a51.28,51.28,0,0,1,1.47,6.57l.42,2.59.22,2.45a52.9,52.9,0,0,1-2.36,17.23,46.22,46.22,0,0,1-7.56,14.62c-.82,1-1.42,1.6-2,2.22a25.94,25.94,0,0,1-2.06,2.09,43.51,43.51,0,0,1-4.16,3.64c-.78.6-1.52,1.19-2.38,1.82l-2.55,1.59-1.29.8c-.44.25-.92.46-1.38.7l-2.79,1.35c-.94.4-1.91.7-2.85,1a20.43,20.43,0,0,1-2.81.86c-1.59.39-2.09.55-2.48.69a7.4,7.4,0,0,1-1.81.46c-1.84.28-3.22.57-4.34.61s-2,.07-2.69.08c-1.48.08-2.57-.14-4.74-.23a24.71,24.71,0,0,1-3-.26l-2.63-.3c-1.63-.35-3.12-.62-4.59-1a38.84,38.84,0,0,1-4.17-1.55l-3.49-1.47a17.34,17.34,0,0,1-2-1l-2.05-1.14a19.72,19.72,0,0,1-2-1.35l-2.06-1.45c-1.32-1-2.57-2.21-3.82-3.29l-3.24-3.52-2.48-3.37-.27-.38a2.51,2.51,0,0,1-.14-.21l-.11-.19-.42-.73-.72-1.28c-.42-.77-.73-1.37-.9-1.75a41.24,41.24,0,0,1-6.1-19.3l-.17-3,.13-3.11c0-.53,0-1.06.08-1.59l.22-1.6c.17-1.07.25-2.18.51-3.27a50.11,50.11,0,0,1,4.8-13.38l1.45-2.48a16,16,0,0,1,1.22-1.71l1.12-1.45a16.6,16.6,0,0,1,1.31-1.59c3.36-4.63,11.41-11.66,20.12-14.45,2.85-1.08,3.53-1.2,4.18-1.46.33-.12.65-.24,1.27-.43l1.18-.33c.49-.12,1.11-.19,1.86-.31A26.45,26.45,0,0,1,301.5,85C304.28,85,300.89,85.21,300.08,85.56Z" transform="translate(-235.37 -57.18)"/><path d="M353.63,104.17l.54.82c.19.32.37.72.58,1.11l1.19,2.44a10.88,10.88,0,0,1,.76,1.94c.14.45.17.65,0,.42C356,108.79,353,103.32,353.63,104.17Z" transform="translate(-235.37 -57.18)"/><path d="M306.29,81.28l1.47-.25,1.15-.11,1.74-.21c.53-.06,1.07-.15,1.76-.19s1.54,0,2.7,0l1.71.08,1.29.2c.75.12,1.32.22,1.84.32s1,.17,1.61.33,1.3.35,2.27.59a35.26,35.26,0,0,1,5.71,1.57c.93.31,1.81.77,2.71,1.16a23.41,23.41,0,0,1,2.64,1.3,45.12,45.12,0,0,1,5,3.16c.79.59,1.63,1.11,2.39,1.75l2.28,1.93c.2.29-.09.13-.86-.48q-.58-.46-1.51-1.26c-.61-.55-1.46-1.06-2.38-1.75a54.05,54.05,0,0,1,8.49,8.12c2.42,3.34,3.91,5.47,1.43,2.53-1.43-1.83-1.85-2.46-2.2-2.85a17.88,17.88,0,0,0-1.42-1.69c-.37-.32-.79-.7-1.28-1.16s-1.16-.9-1.88-1.49a64,64,0,0,0-6-4.44c-2.09-1.07-1.48-.57-4-1.78a44.62,44.62,0,0,0-15.73-4.52,46,46,0,0,0-16,1.24,45.52,45.52,0,0,0-26.71,19,25.15,25.15,0,0,0-1.42,2.24c-.34.56-.59.95-.82,1.3l-.69,1c-.21.4-.45.88-.78,1.58L270,110.8c-.31.84-.57,1.78-.88,2.75l-.47,1.48c-.15.51-.24,1-.37,1.56-.22,1.06-.51,2.13-.7,3.21a57,57,0,0,0-.68,6.26c0,1-.16,1.88-.13,2.7s0,1.57,0,2.2c.08.42.16,1,.23,1.58s.25,1.35.38,2.14l.42,2.55.7,2.76.36,1.43.49,1.4,1,2.74c.79,1.7,1.55,3.26,2.25,4.47a17,17,0,0,0,1.26,2.35c.36.58.74,1.33,1.18,1.91l1.38,1.86a4.41,4.41,0,0,0,.88,1c.14.09.24.26,1.08,1.12a46.82,46.82,0,0,0,11,9.14c.94.53,1.75,1,2.56,1.39s1.67.69,2.6,1.1c7.4,3.35,17.67,4.82,25.26,3.22,2.62-.32,4.16-.85,5.54-1.11l1-.22,1-.31,2.23-.75A35.16,35.16,0,0,0,333,169c.6-.32,1.22-.6,1.83-.95l1.82-1.16,1.86-1.17c.54-.37,1.14-.87,1.72-1.3l1.75-1.34a20.56,20.56,0,0,0,1.65-1.46,49.37,49.37,0,0,0,10.06-12.57,22.27,22.27,0,0,0,1.39-3.38l.57-2a50.58,50.58,0,0,0,3.24-14,49.14,49.14,0,0,0-3.55-19.81c-.61-1.11,1.56,4.5,1.27,4.16.2,1-1.11-2.66-1.22-2.62-.19-.52-.36-1-.55-1.47l-.61-1.27-1.05-2.25a19.16,19.16,0,0,0-1.11-2l-1.19-2c.4-.1-.45-1.79.87-.54l2.16,3.5,1.47,2.89.67,1.29.54,1.31,1.16,2.79a51.28,51.28,0,0,1,1.47,6.57l.42,2.59.22,2.45a52.9,52.9,0,0,1-2.36,17.23A46.22,46.22,0,0,1,350,157.12c-.82,1-1.42,1.6-2,2.22a25.94,25.94,0,0,1-2.06,2.09,43.5,43.5,0,0,1-4.16,3.64c-.78.6-1.52,1.19-2.38,1.82l-2.55,1.59-1.29.8c-.44.25-.92.46-1.38.7l-2.79,1.35c-.94.4-1.91.7-2.85,1a20.43,20.43,0,0,1-2.81.86c-1.59.39-2.09.55-2.48.69a7.4,7.4,0,0,1-1.81.46c-1.84.28-3.22.57-4.34.61s-2,.07-2.69.08c-1.48.08-2.57-.14-4.74-.23a24.71,24.71,0,0,1-3-.26l-2.63-.3c-1.63-.35-3.12-.62-4.59-1a38.85,38.85,0,0,1-4.17-1.55l-3.49-1.47a17.34,17.34,0,0,1-2-1l-2.05-1.14a19.72,19.72,0,0,1-2-1.35l-2.06-1.45c-1.32-1-2.57-2.21-3.82-3.29l-3.24-3.52-2.48-3.37-.27-.38a2.52,2.52,0,0,1-.14-.21l-.11-.19-.42-.73-.72-1.28c-.42-.77-.73-1.37-.9-1.75a41.24,41.24,0,0,1-6.1-19.3l-.17-3,.13-3.11c0-.53,0-1.06.08-1.59l.22-1.6c.17-1.07.25-2.18.51-3.27a50.11,50.11,0,0,1,4.8-13.38l1.45-2.48a16,16,0,0,1,1.22-1.71l1.12-1.45a16.6,16.6,0,0,1,1.31-1.59c3.36-4.63,11.41-11.66,20.12-14.45,2.85-1.08,3.53-1.2,4.18-1.46.33-.12.65-.24,1.27-.43l1.18-.33c.49-.12,1.11-.19,1.86-.31a26.45,26.45,0,0,1,2.94-.39C310.49,80.71,307.11,80.93,306.29,81.28Z" transform="translate(-235.37 -57.18)"/><path d="M332.76,116.79a20.09,20.09,0,0,1,1.41,2.68c.46,1,.63,1.73.48,1.45C334.21,119.63,332.37,116.27,332.76,116.79Z" transform="translate(-235.37 -57.18)"/><path d="M303.75,102.77l.9-.15.7-.07,1.07-.13c.33,0,.65-.09,1.08-.12s.94,0,1.65,0l1,0,.79.12,1.13.2c.65.1,1.19.27,2.38.56,4.83.88,9,3.49,12.68,6.66.12.18-.06.08-.53-.3a27.33,27.33,0,0,0-2.38-1.85,33.06,33.06,0,0,1,5.21,5c1.49,2,2.4,3.35.88,1.55-.88-1.12-1.14-1.51-1.35-1.75a11.2,11.2,0,0,0-.87-1l-.79-.71c-.33-.25-.71-.55-1.15-.91a38.84,38.84,0,0,0-3.67-2.72c-1.28-.66-.91-.35-2.42-1.09a27.88,27.88,0,0,0-19.43-2,27.91,27.91,0,0,0-16.38,11.62c-.8,1.18-1.07,1.76-1.37,2.17l-.42.63c-.13.25-.28.54-.48,1l-.57,1.39c-.19.52-.35,1.09-.54,1.69a13.79,13.79,0,0,0-.52,1.87c-.14.65-.31,1.3-.43,2a34.83,34.83,0,0,0-.42,3.84c0,.59-.1,1.15-.08,1.66v1.35c0,.25.1.58.14,1l.23,1.31.26,1.56.43,1.69.22.88.3.86.6,1.68c.48,1,1,2,1.38,2.74a10.63,10.63,0,0,0,.77,1.44c.22.36.45.82.72,1.17l.85,1.14a16.89,16.89,0,0,0,1.2,1.3,28.69,28.69,0,0,0,6.75,5.61c.57.33,1.07.6,1.57.86l1.6.67a27.41,27.41,0,0,0,15.49,2,34.45,34.45,0,0,0,3.4-.68,19.89,19.89,0,0,0,2.58-.79,33,33,0,0,0,8.69-5.57,30.23,30.23,0,0,0,6.16-7.71,13.9,13.9,0,0,0,.85-2.07L334,141a30.91,30.91,0,0,0,2-8.58,30.09,30.09,0,0,0-2.17-12.14c-.37-.68,1,2.76.78,2.55.12.62-.68-1.63-.74-1.61l-.33-.9-.37-.78-.65-1.38c-.42-.86-.92-1.6-1.41-2.45.24-.06-.28-1.1.52-.32l1.33,2.14.9,1.77.41.79.33.8.71,1.71a31.4,31.4,0,0,1,.9,4l.26,1.59.14,1.5a32.34,32.34,0,0,1-1.44,10.56,28.34,28.34,0,0,1-4.63,9c-.5.59-.87,1-1.22,1.36a15.81,15.81,0,0,1-1.26,1.28,26.61,26.61,0,0,1-2.55,2.23L324,155.23l-1.56,1-.79.49c-.27.16-.57.28-.85.43l-1.71.82c-.58.25-1.17.43-1.75.64a12.54,12.54,0,0,1-1.72.53c-1.95.46-1.22.43-2.63.7-1.13.17-2,.35-2.66.38l-1.65.05c-.91,0-1.57-.08-2.91-.14a15.12,15.12,0,0,1-1.83-.16l-1.61-.19c-1-.21-1.91-.38-2.81-.59a24.24,24.24,0,0,1-2.55-.95l-2.14-.9c-.79-.35-1.59-.85-2.45-1.32s-1.66-1.13-2.51-1.72-1.57-1.35-2.34-2l-2-2.16L284.05,148a24.75,24.75,0,0,1-1.57-2.78,25.33,25.33,0,0,1-3.74-11.83l-.1-1.84.08-1.91c0-.32,0-.65.05-1l.14-1c.11-.66.15-1.34.31-2a30.68,30.68,0,0,1,2.94-8.2A17.72,17.72,0,0,1,283.8,115c.49-.6.84-1.16,1.49-1.87a27.43,27.43,0,0,1,12.33-8.85c1.75-.66,2.17-.73,2.56-.9.2-.07.4-.15.78-.26a9.7,9.7,0,0,1,1.86-.39,16.52,16.52,0,0,1,1.8-.24C306.33,102.42,304.25,102.55,303.75,102.77Z" transform="translate(-235.37 -57.18)"/><path d="M336.57,114.17a20.09,20.09,0,0,1,1.41,2.68c.46,1,.63,1.73.48,1.45C338,117,336.18,113.65,336.57,114.17Z" transform="translate(-235.37 -57.18)"/><path d="M307.56,100.14l.9-.15.7-.07,1.07-.13c.33,0,.65-.09,1.08-.12s.94,0,1.65,0l1,0,.79.12,1.13.2c.65.1,1.19.27,2.38.56,4.83.88,9,3.49,12.68,6.66.12.18-.06.08-.53-.3a27.34,27.34,0,0,0-2.38-1.85,33.06,33.06,0,0,1,5.21,5c1.49,2,2.4,3.35.88,1.55-.88-1.12-1.14-1.51-1.35-1.75a11.2,11.2,0,0,0-.87-1l-.79-.71c-.33-.25-.71-.55-1.15-.91a38.84,38.84,0,0,0-3.67-2.72c-1.28-.66-.91-.35-2.42-1.09a27.88,27.88,0,0,0-19.43-2,27.91,27.91,0,0,0-16.38,11.62c-.8,1.18-1.07,1.76-1.37,2.17l-.42.63c-.13.25-.28.54-.48,1l-.57,1.39c-.19.52-.35,1.09-.54,1.69a13.79,13.79,0,0,0-.52,1.87c-.14.65-.31,1.3-.43,2a34.83,34.83,0,0,0-.42,3.84c0,.59-.1,1.15-.08,1.66v1.35c0,.25.1.58.14,1l.23,1.31.26,1.56.43,1.69.22.88.3.86.6,1.68c.48,1,1,2,1.38,2.74a10.62,10.62,0,0,0,.77,1.44c.22.36.45.82.72,1.17l.85,1.14a16.89,16.89,0,0,0,1.2,1.3,28.69,28.69,0,0,0,6.75,5.61c.57.33,1.07.6,1.57.86l1.6.67a27.41,27.41,0,0,0,15.49,2,34.46,34.46,0,0,0,3.4-.68,19.89,19.89,0,0,0,2.58-.79,33,33,0,0,0,8.69-5.57,30.23,30.23,0,0,0,6.16-7.71,13.9,13.9,0,0,0,.85-2.07l.35-1.25a30.91,30.91,0,0,0,2-8.58,30.09,30.09,0,0,0-2.17-12.14c-.37-.68,1,2.76.78,2.55.12.62-.68-1.63-.74-1.61l-.33-.9-.37-.78-.65-1.38c-.42-.86-.92-1.6-1.41-2.45.24-.06-.28-1.1.52-.32l1.33,2.14.9,1.77.41.79.33.8.71,1.71a31.4,31.4,0,0,1,.9,4l.26,1.59.14,1.5A32.34,32.34,0,0,1,339,137.66a28.34,28.34,0,0,1-4.63,9c-.5.59-.87,1-1.22,1.36a15.81,15.81,0,0,1-1.26,1.28,26.61,26.61,0,0,1-2.55,2.23l-1.46,1.12-1.56,1-.79.49c-.27.16-.57.28-.85.43l-1.71.82c-.58.25-1.17.43-1.75.64a12.54,12.54,0,0,1-1.72.53c-1.95.46-1.22.43-2.63.7-1.13.17-2,.35-2.66.38l-1.65.05c-.91,0-1.57-.08-2.91-.14a15.12,15.12,0,0,1-1.83-.16l-1.61-.19c-1-.21-1.91-.38-2.81-.59a24.23,24.23,0,0,1-2.55-.95l-2.14-.9c-.79-.35-1.59-.85-2.45-1.32s-1.66-1.13-2.51-1.72-1.57-1.35-2.34-2l-2-2.16-1.52-2.07a24.75,24.75,0,0,1-1.57-2.78,25.33,25.33,0,0,1-3.74-11.83l-.1-1.84.08-1.91c0-.32,0-.65.05-1l.14-1c.11-.66.15-1.34.31-2a30.68,30.68,0,0,1,2.94-8.2,17.72,17.72,0,0,1,1.64-2.57c.49-.6.84-1.16,1.49-1.87a27.43,27.43,0,0,1,12.33-8.85c1.75-.66,2.17-.73,2.56-.9.2-.07.4-.15.78-.26a9.7,9.7,0,0,1,1.86-.39,16.52,16.52,0,0,1,1.8-.24C310.14,99.8,308.06,99.93,307.56,100.14Z" transform="translate(-235.37 -57.18)"/></g><g id="Ebene_2" data-name="Ebene 2"><circle cx="73.73" cy="73.15" r="10.9"/><path d="M319.61,130.31a10.72,10.72,0,0,1-2.92,6.93,11.56,11.56,0,0,1-6.66,3.48l-1,.12-1,0a13.79,13.79,0,0,1-2-.16,11.9,11.9,0,0,1-3.86-1.32,11.4,11.4,0,0,1-5.47-6.81c-.09-.36-.2-.73-.26-1.1l-.14-1.13v-1.08c0-.34.07-.81.12-1.21a11.1,11.1,0,0,1,1.7-4.42,11.22,11.22,0,0,1,7.68-4.92,12.22,12.22,0,0,1,2.21-.12l1.12.09,1,.18a11.63,11.63,0,0,1,8.59,7.82l-.11,0a11.46,11.46,0,0,0-8.49-7.72l-1-.18-1.1-.08a12,12,0,0,0-2.18.13,11.06,11.06,0,0,0-7.55,4.88,10.91,10.91,0,0,0-1.66,4.35c0,.39-.11.85-.11,1.19v1.07l.14,1.11c.06.37.17.72.26,1.08a11.2,11.2,0,0,0,5.38,6.65,11.73,11.73,0,0,0,3.78,1.29,13.67,13.67,0,0,0,1.91.16l1,0,.93-.11a11.4,11.4,0,0,0,6.55-3.37,10.52,10.52,0,0,0,2.92-6.82Z" transform="translate(-235.37 -57.18)"/><path d="M319.15,132.23a10.17,10.17,0,0,1-4.13,6,11.12,11.12,0,0,1-6.91,1.92,11.71,11.71,0,0,1-6.9-2.63,10.66,10.66,0,0,1-3.86-7.25l0-1c0-.35,0-.73.08-1.1a10.15,10.15,0,0,1,.5-2.13,10.52,10.52,0,0,1,2.32-3.76,10.72,10.72,0,0,1,7.93-3.31c.36,0,.69,0,1.07.07l1,.16,1,.26c.33.1.65.23,1,.34a11.18,11.18,0,0,1,3.38,2.13,10.86,10.86,0,0,1,3.45,6.67l-.12,0a10.66,10.66,0,0,0-3.4-6.6,11.09,11.09,0,0,0-7.36-2.9,10.55,10.55,0,0,0-7.8,3.3,10.33,10.33,0,0,0-2.26,3.71,10,10,0,0,0-.48,2.09c0,.36-.07.73-.07,1.08l.05,1a10.48,10.48,0,0,0,3.8,7.07,11.56,11.56,0,0,0,6.73,2.57l1,0h.16l.22,0,.44,0a11.76,11.76,0,0,0,1.74-.32,10.61,10.61,0,0,0,3.23-1.47A10,10,0,0,0,319,132.2Z" transform="translate(-235.37 -57.18)"/><path d="M318.38,133.84a9.7,9.7,0,0,1-5,4.85,10.43,10.43,0,0,1-3.33.8l-.85,0-.91,0a11.92,11.92,0,0,1-1.61-.27,11.23,11.23,0,0,1-6-3.57,10,10,0,0,1-2.41-7.27,9.75,9.75,0,0,1,3.91-7,10.26,10.26,0,0,1,7.92-1.89,10.82,10.82,0,0,1,6.62,3.92,10.22,10.22,0,0,1,2.2,6.93h-.13a10,10,0,0,0-2.16-6.86,10.65,10.65,0,0,0-6.55-3.87,10.09,10.09,0,0,0-7.8,1.9,9.57,9.57,0,0,0-3.8,6.89,9.78,9.78,0,0,0,2.39,7.1,11.07,11.07,0,0,0,5.83,3.48,7.77,7.77,0,0,0,.79.16c.27,0,.44.09.78.11l.9.05.83,0a10.24,10.24,0,0,0,3.27-.75,9.52,9.52,0,0,0,5-4.73Z" transform="translate(-235.37 -57.18)"/></g></svg>