<svg id="musik" xmlns="http://www.w3.org/2000/svg" viewBox="0 0 123 123"><defs><style>.cls-1{fill:#51beca;stroke:#000;stroke-miterlimit:10;stroke-width:3px;}</style></defs><title>musik_aktivbuttons</title><circle class="cls-1" cx="61.5" cy="61.5" r="60"/><path d="M123.5,186.48A41.5,41.5,0,1,0,165,228,41.55,41.55,0,0,0,123.5,186.48Zm0,80.23A38.73,38.73,0,1,1,162.23,228,38.78,38.78,0,0,1,123.5,266.72Z" transform="translate(-62 -166.48)"/><path d="M114,198.18a1.38,1.38,0,1,0-.65-2.69A30.28,30.28,0,0,0,91,217.88a1.38,1.38,0,0,0,1,1.67,1.37,1.37,0,0,0,.32,0,1.39,1.39,0,0,0,1.34-1.06A27.5,27.5,0,0,1,114,198.18Z" transform="translate(-62 -166.48)"/><path d="M155,236.42a1.38,1.38,0,0,0-1.67,1A27.5,27.5,0,0,1,133,257.78a1.38,1.38,0,0,0,.32,2.73,1.44,1.44,0,0,0,.32,0A30.29,30.29,0,0,0,156,238.08,1.39,1.39,0,0,0,155,236.42Z" transform="translate(-62 -166.48)"/><path d="M115.83,204.86a1.38,1.38,0,1,0-.63-2.69,23.42,23.42,0,0,0-17.51,17.51,1.38,1.38,0,0,0,1,1.66,1.29,1.29,0,0,0,.32,0,1.39,1.39,0,0,0,1.35-1.07,20.66,20.66,0,0,1,15.45-15.45Z" transform="translate(-62 -166.48)"/><path d="M149.31,236.28a1.38,1.38,0,0,0-2.69-.63,20.65,20.65,0,0,1-15.45,15.45,1.38,1.38,0,0,0,.63,2.69,23.41,23.41,0,0,0,17.51-17.51Z" transform="translate(-62 -166.48)"/><path d="M118.65,209.9a1.39,1.39,0,0,0-1.65-1.06,16.62,16.62,0,0,0-12.65,12.65,1.38,1.38,0,0,0,1.06,1.65,1.37,1.37,0,0,0,.3,0,1.38,1.38,0,0,0,1.35-1.09,13.85,13.85,0,0,1,10.54-10.54A1.38,1.38,0,0,0,118.65,209.9Z" transform="translate(-62 -166.48)"/><path d="M142.64,234.48a1.38,1.38,0,1,0-2.7-.59,13.85,13.85,0,0,1-10.54,10.54,1.38,1.38,0,0,0,.29,2.73,1.46,1.46,0,0,0,.3,0A16.62,16.62,0,0,0,142.64,234.48Z" transform="translate(-62 -166.48)"/><path d="M134.68,228a11.18,11.18,0,1,0-11.18,11.18A11.19,11.19,0,0,0,134.68,228Zm-11.18,8.41a8.41,8.41,0,1,1,8.41-8.41A8.42,8.42,0,0,1,123.5,236.39Z" transform="translate(-62 -166.48)"/></svg>