<svg id="Ebene_3" data-name="Ebene 3" xmlns="http://www.w3.org/2000/svg" viewBox="0 0 206.33 86.38"><defs><style>.cls-1{font-size:70px;font-family:RofiTaste, RofiTaste;}.cls-2{letter-spacing:-0.02em;}.cls-3{letter-spacing:-0.03em;}.cls-4{letter-spacing:-0.06em;}.cls-5{letter-spacing:-0.05em;}.cls-6{letter-spacing:-0.02em;}</style></defs><title>flowAfterglow 4</title><text class="cls-1" transform="translate(2.71 58.87)">F<tspan class="cls-2" x="28.28" y="0">l</tspan><tspan x="38.99" y="0">ow </tspan><tspan class="cls-3" x="112.21" y="0">e</tspan><tspan class="cls-4" x="126.56" y="0">f</tspan><tspan class="cls-5" x="139.3" y="0">f</tspan><tspan class="cls-6" x="152.6" y="0">ec</tspan><tspan x="183.4" y="0">t</tspan></text><path d="M299.53,281.91l.17,0,.44,0a1.47,1.47,0,0,0,.33,0,.6.6,0,0,1,.34,0l.3.07.33,0a1.46,1.46,0,0,1,.31,0l.53,0,.36.05a.15.15,0,0,0,.11,0l.1,0a.22.22,0,0,1,.13,0h.25l.25,0h1.59l.69-.11.46-.1.78-.17.78-.17.46-.1.21,0a5.54,5.54,0,0,1,2.34-.35.22.22,0,0,1,.14.09l.24.15.35.3a1,1,0,0,1,.28.31.61.61,0,0,1,.07.37,1,1,0,0,1-.31.6,1,1,0,0,1-.36.24l-.4.13-.59.18-.9.26-.91.24-.59.16h-.08l-.34.1-.35.07-.93.21a.16.16,0,0,0-.12,0,13.13,13.13,0,0,1-1.37.1q-.67,0-1.37.07h-.77l-1-.06-.89-.1-.24,0-.24,0s-1.86-.35-2-.37l-1.16-.36a.41.41,0,0,0-.17,0q-.28,0-.25-.37a2.5,2.5,0,0,1,.28-1.14q.16-.19.33-.35s.06,0,.08,0h.08l.39,0A8.22,8.22,0,0,1,299.53,281.91Z" transform="translate(-208.14 -239.82)"/></svg>