<svg id="facebook" xmlns="http://www.w3.org/2000/svg" viewBox="0 0 725.25 120.48"><defs><style>.cls-1{fill:#fff;}.cls-2{fill:none;stroke:#fff;stroke-miterlimit:10;stroke-width:4px;}</style></defs><title>sozial_mediabuttons</title><circle cx="361.5" cy="60.48" r="60"/><circle cx="512.33" cy="60.48" r="60"/><circle cx="665.25" cy="60.48" r="60"/><path class="cls-1" d="M1207.25,545h-63a1.5,1.5,0,0,0-1.5,1.5v45a1.5,1.5,0,0,0,1.5,1.5h63a1.5,1.5,0,0,0,1.5-1.5v-45A1.5,1.5,0,0,0,1207.25,545Zm-1.5,41.37-18.58-18.58-2.12,2.12L1205.13,590h-58.77l20.09-20.09-2.12-2.12-18.58,18.58V548h60Z" transform="translate(-510.5 -508.5)"/><path class="cls-1" d="M1202.72,548l-27,27-27-27h-3v1.21l28.94,28.94a1.5,1.5,0,0,0,2.12,0l28.94-28.94V548Z" transform="translate(-510.5 -508.5)"/><circle cx="210.94" cy="60.48" r="60"/><path id="YouTube" class="cls-1" d="M742.06,585.09h-3.82l0-2.22a1.8,1.8,0,0,1,1.8-1.79h.24a1.8,1.8,0,0,1,1.8,1.79Zm-14.33-4.75a1.63,1.63,0,0,0-1.76,1.45v10.79a1.8,1.8,0,0,0,3.53,0V581.79A1.63,1.63,0,0,0,727.73,580.34Zm23.27-6v20.53a9.26,9.26,0,0,1-9.49,9h-39a9.26,9.26,0,0,1-9.49-9V574.3a9.26,9.26,0,0,1,9.49-9h39A9.26,9.26,0,0,1,751,574.3Zm-45.91,22.76V575.44h4.84v-3.2l-12.89,0v3.15h4v21.68Zm14.5-18.4h-4V590.2a20.47,20.47,0,0,1,0,2.8c-.33.9-1.8,1.85-2.38.1a23,23,0,0,1,0-2.82l0-11.63h-4V590.1c0,1.75,0,3.06,0,3.66.1,1,.06,2.27,1,3,1.81,1.31,5.29-.19,6.16-2.06v2.38h3.24v-18.4Zm12.9,13.22v-9.61c0-3.66-2.74-5.86-6.46-2.89l0-7.14h-4l0,24.66,3.31,0,.3-1.54C729.84,599.2,732.5,596.54,732.49,591.88Zm12.62-1.27-3,0c0,.12,0,.26,0,.41v1.69a1.65,1.65,0,0,1-1.65,1.64h-.59a1.65,1.65,0,0,1-1.65-1.64v-4.44h6.92v-2.61a41.12,41.12,0,0,0-.21-4.9c-.5-3.44-5.33-4-7.77-2.23a4.55,4.55,0,0,0-1.69,2.28,12.82,12.82,0,0,0-.51,4.06v5.73C734.93,600.14,746.5,598.8,745.12,590.61ZM729.6,559.5a2.75,2.75,0,0,0,1,1.22,2.81,2.81,0,0,0,1.65.46,2.57,2.57,0,0,0,1.55-.48,3.71,3.71,0,0,0,1.13-1.45l-.08,1.58h4.5V541.71h-3.54v14.88a1.47,1.47,0,0,1-2.95,0V541.71h-3.69v12.89c0,1.64,0,2.74.08,3.29A5.54,5.54,0,0,0,729.6,559.5ZM716,548.7a15.91,15.91,0,0,1,.46-4.3,4.6,4.6,0,0,1,4.7-3.42,5.58,5.58,0,0,1,2.67.6,4.46,4.46,0,0,1,1.72,1.57,6.19,6.19,0,0,1,.83,2,15.88,15.88,0,0,1,.23,3.13v4.83a26.17,26.17,0,0,1-.21,3.91,6.19,6.19,0,0,1-.89,2.32,4.2,4.2,0,0,1-1.73,1.59,5.52,5.52,0,0,1-2.44.51,6.77,6.77,0,0,1-2.6-.44,3.57,3.57,0,0,1-1.66-1.33,5.88,5.88,0,0,1-.84-2.14,20.66,20.66,0,0,1-.25-3.77V548.7Zm3.52,7.59a1.79,1.79,0,1,0,3.57,0V546.12a1.79,1.79,0,1,0-3.57,0Zm-12.44,5.14h4.24V546.77l5-12.56h-4.64L709,543.54l-2.7-9.36h-4.59l5.33,12.59Z" transform="translate(-510.5 -508.5)"/><g id="Instagram"><path class="cls-1" d="M849,555.23a1.25,1.25,0,0,1-1.25-1.25V542.73a1.25,1.25,0,0,1,2.5,0V554A1.25,1.25,0,0,1,849,555.23Z" transform="translate(-510.5 -508.5)"/><path class="cls-1" d="M853.2,555.23a1.25,1.25,0,0,1-1.25-1.25V541.8a1.25,1.25,0,0,1,2.5,0V554A1.25,1.25,0,0,1,853.2,555.23Z" transform="translate(-510.5 -508.5)"/><path class="cls-1" d="M857.42,555.23a1.25,1.25,0,0,1-1.25-1.25V541.8a1.25,1.25,0,0,1,2.5,0V554A1.25,1.25,0,0,1,857.42,555.23Z" transform="translate(-510.5 -508.5)"/><path class="cls-1" d="M888.61,599H856.9c-9.47,0-14.9-5-14.9-13.67V554.14c0-9.06,5.34-15.16,13.28-15.16h34.48c5.89,0,12.24,5.66,12.24,14.79v31.35C902,592.9,896.12,599,888.61,599Zm-33.33-57.5c-8,0-10.78,6.82-10.78,12.66v31.17c0,9.23,6.74,11.17,12.4,11.17h31.72c6.21,0,10.89-4.88,10.89-11.35V553.78c0-7.59-5.05-12.29-9.74-12.29Z" transform="translate(-510.5 -508.5)"/><path class="cls-1" d="M872,558a9.58,9.58,0,1,0,9.58,9.58A9.59,9.59,0,0,0,872,558Zm0,14.38a4.79,4.79,0,1,1,4.79-4.79A4.79,4.79,0,0,1,872,572.42Z" transform="translate(-510.5 -508.5)"/><path class="cls-1" d="M872,582.84a15.21,15.21,0,1,1,15.21-15.21A15.23,15.23,0,0,1,872,582.84Zm0-27.92a12.71,12.71,0,1,0,12.71,12.71A12.72,12.72,0,0,0,872,554.92Z" transform="translate(-510.5 -508.5)"/><rect class="cls-1" x="372.75" y="49.13" width="17.5" height="2.7"/><rect class="cls-1" x="333.37" y="49.17" width="16.56" height="2.63"/><path class="cls-1" d="M893.67,551.65a2.75,2.75,0,0,1-2.75,2.75h-4.08a2.75,2.75,0,0,1-2.75-2.75v-4.08a2.75,2.75,0,0,1,2.75-2.75h4.08a2.75,2.75,0,0,1,2.75,2.75Z" transform="translate(-510.5 -508.5)"/></g><path class="cls-1" d="M1022.8,535.74a19.3,19.3,0,0,1,19.12,19.13c0,2.45.08,4.7.22,6.78a2.38,2.38,0,0,0,2.92,2.17l3.27-.77a1.83,1.83,0,0,1,2.2,1.36,2.4,2.4,0,0,1-1.55,2.79l-5,2a2.66,2.66,0,0,0-1.57,3.17c4,14.7,15.08,13.17,15.08,15.09,0,2.41-8.37,2.74-9.13,3.5s0,4.43-1.72,5.14a3.6,3.6,0,0,1-1.32.18c-1.27,0-3.07-.25-5-.25a11.65,11.65,0,0,0-4.88.88c-4,1.85-7.87,5.31-12.67,5.31s-8.66-3.46-12.67-5.31a11.65,11.65,0,0,0-4.88-.88c-1.9,0-3.7.25-5,.25a3.6,3.6,0,0,1-1.32-.18c-1.69-.71-1-4.38-1.72-5.14s-9.13-1.1-9.13-3.5c0-1.92,11.11-.39,15.08-15.09a2.67,2.67,0,0,0-1.57-3.17l-5-2a2.4,2.4,0,0,1-1.55-2.79,1.83,1.83,0,0,1,2.2-1.36l3.27.77a2.38,2.38,0,0,0,2.92-2.17c.14-2.08.21-4.33.22-6.78a19.24,19.24,0,0,1,19-19.13m0-4.15h0a22.7,22.7,0,0,0-9,1.86,23.6,23.6,0,0,0-12.34,12.4,23,23,0,0,0-1.85,9c0,1.53,0,3-.09,4.43L998.3,559a6,6,0,0,0-7.19,4.5,6.55,6.55,0,0,0,4.11,7.56l3.64,1.47c-2.41,7.39-6.85,8.81-9.84,9.76a15,15,0,0,0-2.13.8,4.79,4.79,0,0,0-2.88,4.36,5.4,5.4,0,0,0,2.25,4.33,9.56,9.56,0,0,0,2.73,1.39,34.14,34.14,0,0,0,4.72,1.12A10.73,10.73,0,0,0,994,596a5.84,5.84,0,0,0,3.35,3.94,7.56,7.56,0,0,0,2.93.5c.73,0,1.49-.06,2.31-.12s1.77-.13,2.66-.13a7.65,7.65,0,0,1,3.14.5c1,.46,2.07,1.09,3.2,1.75,3.14,1.85,6.71,3.94,11.2,3.94s8.06-2.09,11.2-3.94c1.13-.66,2.2-1.29,3.2-1.75a7.65,7.65,0,0,1,3.14-.5c.89,0,1.79.07,2.66.13s1.58.12,2.31.12a7.56,7.56,0,0,0,2.93-.5,5.84,5.84,0,0,0,3.35-3.94,10.71,10.71,0,0,0,.34-1.68,34.16,34.16,0,0,0,4.72-1.12,9.56,9.56,0,0,0,2.73-1.39,5.4,5.4,0,0,0,2.25-4.33,4.79,4.79,0,0,0-2.88-4.36,15,15,0,0,0-2.13-.8c-3-1-7.43-2.37-9.84-9.76l3.64-1.47a6.55,6.55,0,0,0,4.11-7.56,5.94,5.94,0,0,0-2.15-3.4,6,6,0,0,0-5-1.1l-1.21.28c-.06-1.42-.09-2.9-.09-4.43a22.85,22.85,0,0,0-1.86-9,23.69,23.69,0,0,0-12.39-12.39,22.78,22.78,0,0,0-9-1.86Z" transform="translate(-510.5 -508.5)"/><circle cx="60" cy="60" r="60"/><path class="cls-2" d="M589.42,532.6l-10.06,0c-11.3,0-18.6,7.49-18.6,19.08v8.8H550.66a1.58,1.58,0,0,0-1.58,1.58v12.75a1.58,1.58,0,0,0,1.58,1.58h10.11v32.17a1.58,1.58,0,0,0,1.58,1.58h13.19a1.58,1.58,0,0,0,1.58-1.58V576.37h11.82a1.58,1.58,0,0,0,1.58-1.58V562a1.58,1.58,0,0,0-1.58-1.58H577.12V553c0-3.58.85-5.4,5.52-5.4h6.77A1.58,1.58,0,0,0,591,546V534.18A1.58,1.58,0,0,0,589.42,532.6Z" transform="translate(-510.5 -508.5)"/></svg>