<svg id="video" xmlns="http://www.w3.org/2000/svg" viewBox="0 0 123 123"><defs><style>.cls-1{fill:#51beca;stroke:#000;stroke-miterlimit:10;stroke-width:3px;}</style></defs><title>video_aktivbuttons</title><circle class="cls-1" cx="61.5" cy="61.5" r="60"/><path d="M310.11,217.08a1.83,1.83,0,0,0-1.81,0l-11.85,6.38V218a1.83,1.83,0,0,0-1.83-1.83h-3a16.43,16.43,0,1,0-26.31-16.62A12.39,12.39,0,1,0,247,216.12h-1.67a1.83,1.83,0,0,0-1.83,1.83v8.32h-4.64a1.83,1.83,0,0,0-1.83,1.83v7.21a1.83,1.83,0,0,0,1.83,1.83h4.64v8.32a1.83,1.83,0,0,0,1.83,1.83h21.63L257,266.37a1.83,1.83,0,1,0,3.25,1.7L270,249.44l9.71,18.62a1.83,1.83,0,0,0,3.25-1.7L273,247.31h21.63a1.83,1.83,0,0,0,1.83-1.83V240l11.85,6.38a1.83,1.83,0,0,0,2.7-1.61V218.65A1.83,1.83,0,0,0,310.11,217.08Zm-66.63,16.4h-2.81v-3.54h2.81Zm37.82-42.9a12.77,12.77,0,1,1-12.77,12.77A12.78,12.78,0,0,1,281.29,190.58Zm-14,21.37a16.56,16.56,0,0,0,3.66,4.17h-6.4A12.43,12.43,0,0,0,267.29,211.95Zm-11.52-13.28a8.73,8.73,0,1,1-8.73,8.73A8.74,8.74,0,0,1,255.77,198.67Zm37,27.82v17.15H247.14V219.79h45.64Zm14.56,15.21-10.89-5.86v-8.26l10.89-5.86Z" transform="translate(-210.5 -166.48)"/><path d="M255.77,222.41a5.57,5.57,0,1,0,5.57,5.57A5.58,5.58,0,0,0,255.77,222.41Zm0,7.84A2.27,2.27,0,1,1,258,228,2.27,2.27,0,0,1,255.77,230.25Z" transform="translate(-210.5 -166.48)"/><path d="M281.29,220a8,8,0,1,0,8,8A8,8,0,0,0,281.29,220Zm0,12.33a4.33,4.33,0,1,1,4.33-4.33A4.34,4.34,0,0,1,281.29,232.31Z" transform="translate(-210.5 -166.48)"/><path d="M275.38,221.39H255.45a1.74,1.74,0,0,0-1.74,1.74v9.71a1.74,1.74,0,0,0,1.74,1.74h19.93a1.74,1.74,0,0,0,1.74-1.74v-9.71A1.74,1.74,0,0,0,275.38,221.39Zm-1.74,9.71H257.19v-6.22h16.45v6.22Z" transform="translate(-210.5 -166.48)"/><circle cx="74.49" cy="61.5" r="1.83"/><circle cx="74.49" cy="61.5" r="1.83"/></svg>